STARTFONT 2.1
COMMENT This font is still under development.
COMMENT You can use, copy, modify, distribute this file for free.
COMMENT 
COMMENT 96.06.03 created by Takahashi N. <ntakahas@etl.go.jp>
FONT -ETL-fixed-bold-r-normal--16-160-72-72-C-80-ISO8859-1
SIZE 16 72 72
FONTBOUNDINGBOX 8 16 0 -2
STARTPROPERTIES 18
FONTNAME_REGISTRY ""
FOUNDRY "ETL"
FAMILY_NAME "fixed"
WEIGHT_NAME "bold"
SLANT "r"
SETWIDTH_NAME "normal"
ADD_STYLE_NAME ""
PIXEL_SIZE 16
POINT_SIZE 160
RESOLUTION_X 72
RESOLUTION_Y 72
SPACING "C"
AVERAGE_WIDTH 80
CHARSET_REGISTRY "ISO8859"
CHARSET_ENCODING "1"
DEFAULT_CHAR 32
FONT_DESCENT 2
FONT_ASCENT 14
ENDPROPERTIES
CHARS 191
STARTCHAR SPACE
ENCODING 32
SWIDTH 500 0
DWIDTH 8 0
BBX 8 16 0 -2
BITMAP
00
00
00
00
00
00
00
00
00
00
00
00
00
00
00
00
ENDCHAR
STARTCHAR EXCLAMATION MARK
ENCODING 33
SWIDTH 500 0
DWIDTH 8 0
BBX 8 16 0 -2
BITMAP
00
00
00
00
18
18
18
18
18
18
18
00
00
18
18
00
ENDCHAR
STARTCHAR QUOTATION MARK
ENCODING 34
SWIDTH 500 0
DWIDTH 8 0
BBX 8 16 0 -2
BITMAP
00
00
77
77
33
66
00
00
00
00
00
00
00
00
00
00
ENDCHAR
STARTCHAR NUMBER SIGN
ENCODING 35
SWIDTH 500 0
DWIDTH 8 0
BBX 8 16 0 -2
BITMAP
00
00
00
00
1b
1b
1b
7f
36
36
7f
6c
6c
6c
00
00
ENDCHAR
STARTCHAR DOLLAR SIGN
ENCODING 36
SWIDTH 500 0
DWIDTH 8 0
BBX 8 16 0 -2
BITMAP
00
00
00
00
18
3e
59
58
38
1e
1b
5b
3e
18
00
00
ENDCHAR
STARTCHAR PERCENT SIGN
ENCODING 37
SWIDTH 500 0
DWIDTH 8 0
BBX 8 16 0 -2
BITMAP
00
00
00
00
39
6b
6e
3e
0c
18
3e
3b
6b
4e
00
00
ENDCHAR
STARTCHAR AMPERSAND
ENCODING 38
SWIDTH 500 0
DWIDTH 8 0
BBX 8 16 0 -2
BITMAP
00
00
00
00
1e
33
33
33
1e
3d
67
62
67
3d
00
00
ENDCHAR
STARTCHAR APOSTROPHE
ENCODING 39
SWIDTH 500 0
DWIDTH 8 0
BBX 8 16 0 -2
BITMAP
00
00
38
38
18
30
00
00
00
00
00
00
00
00
00
00
ENDCHAR
STARTCHAR LEFT PARENTHESIS
ENCODING 40
SWIDTH 500 0
DWIDTH 8 0
BBX 8 16 0 -2
BITMAP
00
00
00
0c
18
18
30
30
30
30
30
30
18
18
0c
00
ENDCHAR
STARTCHAR RIGHT PARENTHESIS
ENCODING 41
SWIDTH 500 0
DWIDTH 8 0
BBX 8 16 0 -2
BITMAP
00
00
00
30
18
18
0c
0c
0c
0c
0c
0c
18
18
30
00
ENDCHAR
STARTCHAR ASTERISK
ENCODING 42
SWIDTH 500 0
DWIDTH 8 0
BBX 8 16 0 -2
BITMAP
00
00
00
00
00
00
49
6b
3e
1c
3e
6b
49
00
00
00
ENDCHAR
STARTCHAR PLUS SIGN
ENCODING 43
SWIDTH 500 0
DWIDTH 8 0
BBX 8 16 0 -2
BITMAP
00
00
00
00
00
00
18
18
18
7e
18
18
18
00
00
00
ENDCHAR
STARTCHAR COMMA
ENCODING 44
SWIDTH 500 0
DWIDTH 8 0
BBX 8 16 0 -2
BITMAP
00
00
00
00
00
00
00
00
00
00
00
00
1c
1c
0c
18
ENDCHAR
STARTCHAR HYPHEN, MINUS SIGN
ENCODING 45
SWIDTH 500 0
DWIDTH 8 0
BBX 8 16 0 -2
BITMAP
00
00
00
00
00
00
00
00
3e
3e
00
00
00
00
00
00
ENDCHAR
STARTCHAR FULL STOP
ENCODING 46
SWIDTH 500 0
DWIDTH 8 0
BBX 8 16 0 -2
BITMAP
00
00
00
00
00
00
00
00
00
00
00
00
1c
1c
00
00
ENDCHAR
STARTCHAR SOLIDUS
ENCODING 47
SWIDTH 500 0
DWIDTH 8 0
BBX 8 16 0 -2
BITMAP
00
00
00
00
03
03
06
0c
0c
18
18
30
60
60
00
00
ENDCHAR
STARTCHAR DIGIT ZERO
ENCODING 48
SWIDTH 500 0
DWIDTH 8 0
BBX 8 16 0 -2
BITMAP
00
00
00
00
1c
36
63
63
63
63
63
63
36
1c
00
00
ENDCHAR
STARTCHAR DIGIT ONE
ENCODING 49
SWIDTH 500 0
DWIDTH 8 0
BBX 8 16 0 -2
BITMAP
00
00
00
00
0c
1c
3c
0c
0c
0c
0c
0c
0c
3f
00
00
ENDCHAR
STARTCHAR DIGIT TWO
ENCODING 50
SWIDTH 500 0
DWIDTH 8 0
BBX 8 16 0 -2
BITMAP
00
00
00
00
3e
63
63
03
0e
18
30
60
60
7f
00
00
ENDCHAR
STARTCHAR DIGIT THREE
ENCODING 51
SWIDTH 500 0
DWIDTH 8 0
BBX 8 16 0 -2
BITMAP
00
00
00
00
3e
63
63
03
1e
03
03
63
63
3e
00
00
ENDCHAR
STARTCHAR DIGIT FOUR
ENCODING 52
SWIDTH 500 0
DWIDTH 8 0
BBX 8 16 0 -2
BITMAP
00
00
00
00
06
0e
1e
36
66
66
7f
06
06
06
00
00
ENDCHAR
STARTCHAR DIGIT FIVE
ENCODING 53
SWIDTH 500 0
DWIDTH 8 0
BBX 8 16 0 -2
BITMAP
00
00
00
00
7f
60
60
60
7e
03
03
03
63
3e
00
00
ENDCHAR
STARTCHAR DIGIT SIX
ENCODING 54
SWIDTH 500 0
DWIDTH 8 0
BBX 8 16 0 -2
BITMAP
00
00
00
00
1e
30
60
60
7e
63
63
63
63
3e
00
00
ENDCHAR
STARTCHAR DIGIT SEVEN
ENCODING 55
SWIDTH 500 0
DWIDTH 8 0
BBX 8 16 0 -2
BITMAP
00
00
00
00
7f
03
03
06
06
06
0c
0c
0c
0c
00
00
ENDCHAR
STARTCHAR DIGIT EIGHT
ENCODING 56
SWIDTH 500 0
DWIDTH 8 0
BBX 8 16 0 -2
BITMAP
00
00
00
00
3e
63
63
63
3e
63
63
63
63
3e
00
00
ENDCHAR
STARTCHAR DIGIT NINE
ENCODING 57
SWIDTH 500 0
DWIDTH 8 0
BBX 8 16 0 -2
BITMAP
00
00
00
00
3e
63
63
63
3f
03
03
03
06
3c
00
00
ENDCHAR
STARTCHAR COLON
ENCODING 58
SWIDTH 500 0
DWIDTH 8 0
BBX 8 16 0 -2
BITMAP
00
00
00
00
00
00
1c
1c
00
00
00
1c
1c
00
00
00
ENDCHAR
STARTCHAR SEMICOLON
ENCODING 59
SWIDTH 500 0
DWIDTH 8 0
BBX 8 16 0 -2
BITMAP
00
00
00
00
00
00
1c
1c
00
00
00
1c
1c
0c
18
00
ENDCHAR
STARTCHAR LESS-THAN SIGN
ENCODING 60
SWIDTH 500 0
DWIDTH 8 0
BBX 8 16 0 -2
BITMAP
00
00
00
00
00
06
0c
18
30
60
30
18
0c
06
00
00
ENDCHAR
STARTCHAR EQUALS SIGN
ENCODING 61
SWIDTH 500 0
DWIDTH 8 0
BBX 8 16 0 -2
BITMAP
00
00
00
00
00
00
00
3e
3e
00
00
3e
3e
00
00
00
ENDCHAR
STARTCHAR GREATER-THAN SIGN
ENCODING 62
SWIDTH 500 0
DWIDTH 8 0
BBX 8 16 0 -2
BITMAP
00
00
00
00
00
60
30
18
0c
06
0c
18
30
60
00
00
ENDCHAR
STARTCHAR QUESTION MARK
ENCODING 63
SWIDTH 500 0
DWIDTH 8 0
BBX 8 16 0 -2
BITMAP
00
00
00
00
3c
66
66
06
0c
18
18
00
00
18
18
00
ENDCHAR
STARTCHAR COMMERCIAL AT
ENCODING 64
SWIDTH 500 0
DWIDTH 8 0
BBX 8 16 0 -2
BITMAP
00
00
00
00
1c
36
63
6f
6b
6b
6b
6f
30
1e
00
00
ENDCHAR
STARTCHAR CAPITAL LETTER A
ENCODING 65
SWIDTH 500 0
DWIDTH 8 0
BBX 8 16 0 -2
BITMAP
00
00
00
00
1c
36
63
63
63
7f
63
63
63
63
00
00
ENDCHAR
STARTCHAR CAPITAL LETTER B
ENCODING 66
SWIDTH 500 0
DWIDTH 8 0
BBX 8 16 0 -2
BITMAP
00
00
00
00
7e
63
63
63
7e
63
63
63
63
7e
00
00
ENDCHAR
STARTCHAR CAPITAL LETTER C
ENCODING 67
SWIDTH 500 0
DWIDTH 8 0
BBX 8 16 0 -2
BITMAP
00
00
00
00
3e
63
63
60
60
60
60
63
63
3e
00
00
ENDCHAR
STARTCHAR CAPITAL LETTER D
ENCODING 68
SWIDTH 500 0
DWIDTH 8 0
BBX 8 16 0 -2
BITMAP
00
00
00
00
78
66
63
63
63
63
63
63
66
78
00
00
ENDCHAR
STARTCHAR CAPITAL LETTER E
ENCODING 69
SWIDTH 500 0
DWIDTH 8 0
BBX 8 16 0 -2
BITMAP
00
00
00
00
7f
60
60
60
7e
60
60
60
60
7f
00
00
ENDCHAR
STARTCHAR CAPITAL LETTER F
ENCODING 70
SWIDTH 500 0
DWIDTH 8 0
BBX 8 16 0 -2
BITMAP
00
00
00
00
7f
60
60
60
7e
60
60
60
60
60
00
00
ENDCHAR
STARTCHAR CAPITAL LETTER G
ENCODING 71
SWIDTH 500 0
DWIDTH 8 0
BBX 8 16 0 -2
BITMAP
00
00
00
00
3e
63
63
60
60
6f
63
63
67
3b
00
00
ENDCHAR
STARTCHAR CAPITAL LETTER H
ENCODING 72
SWIDTH 500 0
DWIDTH 8 0
BBX 8 16 0 -2
BITMAP
00
00
00
00
63
63
63
63
7f
63
63
63
63
63
00
00
ENDCHAR
STARTCHAR CAPITAL LETTER I
ENCODING 73
SWIDTH 500 0
DWIDTH 8 0
BBX 8 16 0 -2
BITMAP
00
00
00
00
7e
18
18
18
18
18
18
18
18
7e
00
00
ENDCHAR
STARTCHAR CAPITAL LETTER J
ENCODING 74
SWIDTH 500 0
DWIDTH 8 0
BBX 8 16 0 -2
BITMAP
00
00
00
00
1f
06
06
06
06
06
06
66
66
3c
00
00
ENDCHAR
STARTCHAR CAPITAL LETTER K
ENCODING 75
SWIDTH 500 0
DWIDTH 8 0
BBX 8 16 0 -2
BITMAP
00
00
00
00
63
66
6c
78
70
70
78
6c
66
63
00
00
ENDCHAR
STARTCHAR CAPITAL LETTER L
ENCODING 76
SWIDTH 500 0
DWIDTH 8 0
BBX 8 16 0 -2
BITMAP
00
00
00
00
60
60
60
60
60
60
60
60
60
7f
00
00
ENDCHAR
STARTCHAR CAPITAL LETTER M
ENCODING 77
SWIDTH 500 0
DWIDTH 8 0
BBX 8 16 0 -2
BITMAP
00
00
00
00
63
77
7f
7f
6b
6b
6b
63
63
63
00
00
ENDCHAR
STARTCHAR CAPITAL LETTER N
ENCODING 78
SWIDTH 500 0
DWIDTH 8 0
BBX 8 16 0 -2
BITMAP
00
00
00
00
63
63
73
73
6b
6b
67
67
63
63
00
00
ENDCHAR
STARTCHAR CAPITAL LETTER O
ENCODING 79
SWIDTH 500 0
DWIDTH 8 0
BBX 8 16 0 -2
BITMAP
00
00
00
00
3e
63
63
63
63
63
63
63
63
3e
00
00
ENDCHAR
STARTCHAR CAPITAL LETTER P
ENCODING 80
SWIDTH 500 0
DWIDTH 8 0
BBX 8 16 0 -2
BITMAP
00
00
00
00
7e
63
63
63
7e
60
60
60
60
60
00
00
ENDCHAR
STARTCHAR CAPITAL LETTER Q
ENCODING 81
SWIDTH 500 0
DWIDTH 8 0
BBX 8 16 0 -2
BITMAP
00
00
00
00
3e
63
63
63
63
63
63
7b
67
3e
03
00
ENDCHAR
STARTCHAR CAPITAL LETTER R
ENCODING 82
SWIDTH 500 0
DWIDTH 8 0
BBX 8 16 0 -2
BITMAP
00
00
00
00
7e
63
63
63
7e
78
6c
66
63
61
00
00
ENDCHAR
STARTCHAR CAPITAL LETTER S
ENCODING 83
SWIDTH 500 0
DWIDTH 8 0
BBX 8 16 0 -2
BITMAP
00
00
00
00
3e
63
63
60
38
0e
03
63
63
3e
00
00
ENDCHAR
STARTCHAR CAPITAL LETTER T
ENCODING 84
SWIDTH 500 0
DWIDTH 8 0
BBX 8 16 0 -2
BITMAP
00
00
00
00
7f
0c
0c
0c
0c
0c
0c
0c
0c
0c
00
00
ENDCHAR
STARTCHAR CAPITAL LETTER U
ENCODING 85
SWIDTH 500 0
DWIDTH 8 0
BBX 8 16 0 -2
BITMAP
00
00
00
00
63
63
63
63
63
63
63
63
63
3e
00
00
ENDCHAR
STARTCHAR CAPITAL LETTER V
ENCODING 86
SWIDTH 500 0
DWIDTH 8 0
BBX 8 16 0 -2
BITMAP
00
00
00
00
43
43
63
26
36
36
1c
1c
18
08
00
00
ENDCHAR
STARTCHAR CAPITAL LETTER W
ENCODING 87
SWIDTH 500 0
DWIDTH 8 0
BBX 8 16 0 -2
BITMAP
00
00
00
00
63
63
63
63
6b
6b
6b
7f
77
63
00
00
ENDCHAR
STARTCHAR CAPITAL LETTER X
ENCODING 88
SWIDTH 500 0
DWIDTH 8 0
BBX 8 16 0 -2
BITMAP
00
00
00
00
61
63
32
36
1c
1c
36
26
63
43
00
00
ENDCHAR
STARTCHAR CAPITAL LETTER Y
ENCODING 89
SWIDTH 500 0
DWIDTH 8 0
BBX 8 16 0 -2
BITMAP
00
00
00
00
43
43
66
26
3c
18
18
18
18
18
00
00
ENDCHAR
STARTCHAR CAPITAL LETTER Z
ENCODING 90
SWIDTH 500 0
DWIDTH 8 0
BBX 8 16 0 -2
BITMAP
00
00
00
00
7f
03
06
06
0c
18
18
30
60
7f
00
00
ENDCHAR
STARTCHAR LEFT SQUARE BRACKET
ENCODING 91
SWIDTH 500 0
DWIDTH 8 0
BBX 8 16 0 -2
BITMAP
00
00
00
1e
18
18
18
18
18
18
18
18
18
18
1e
00
ENDCHAR
STARTCHAR REVERSE SOLIDUS
ENCODING 92
SWIDTH 500 0
DWIDTH 8 0
BBX 8 16 0 -2
BITMAP
00
00
00
00
60
60
30
18
18
0c
0c
06
03
03
00
00
ENDCHAR
STARTCHAR RIGHT SQUARE BRACKET
ENCODING 93
SWIDTH 500 0
DWIDTH 8 0
BBX 8 16 0 -2
BITMAP
00
00
00
78
18
18
18
18
18
18
18
18
18
18
78
00
ENDCHAR
STARTCHAR CIRCUMFLEX ACCENT
ENCODING 94
SWIDTH 500 0
DWIDTH 8 0
BBX 8 16 0 -2
BITMAP
00
00
18
3c
66
00
00
00
00
00
00
00
00
00
00
00
ENDCHAR
STARTCHAR LOW LINE
ENCODING 95
SWIDTH 500 0
DWIDTH 8 0
BBX 8 16 0 -2
BITMAP
00
00
00
00
00
00
00
00
00
00
00
00
00
7f
7f
00
ENDCHAR
STARTCHAR GRAVE ACCENT
ENCODING 96
SWIDTH 500 0
DWIDTH 8 0
BBX 8 16 0 -2
BITMAP
00
00
1c
1c
18
0c
00
00
00
00
00
00
00
00
00
00
ENDCHAR
STARTCHAR SMALL LETTER a
ENCODING 97
SWIDTH 500 0
DWIDTH 8 0
BBX 8 16 0 -2
BITMAP
00
00
00
00
00
00
3e
63
03
3f
63
63
67
3b
00
00
ENDCHAR
STARTCHAR SMALL LETTER b
ENCODING 98
SWIDTH 500 0
DWIDTH 8 0
BBX 8 16 0 -2
BITMAP
00
00
00
60
60
60
6e
73
63
63
63
63
73
6e
00
00
ENDCHAR
STARTCHAR SMALL LETTER c
ENCODING 99
SWIDTH 500 0
DWIDTH 8 0
BBX 8 16 0 -2
BITMAP
00
00
00
00
00
00
3e
63
60
60
60
60
63
3e
00
00
ENDCHAR
STARTCHAR SMALL LETTER d
ENCODING 100
SWIDTH 500 0
DWIDTH 8 0
BBX 8 16 0 -2
BITMAP
00
00
00
03
03
03
3b
67
63
63
63
63
67
3b
00
00
ENDCHAR
STARTCHAR SMALL LETTER e
ENCODING 101
SWIDTH 500 0
DWIDTH 8 0
BBX 8 16 0 -2
BITMAP
00
00
00
00
00
00
3e
63
63
7f
60
60
63
3e
00
00
ENDCHAR
STARTCHAR SMALL LETTER f
ENCODING 102
SWIDTH 500 0
DWIDTH 8 0
BBX 8 16 0 -2
BITMAP
00
00
00
0e
18
18
18
7e
18
18
18
18
18
18
00
00
ENDCHAR
STARTCHAR SMALL LETTER g
ENCODING 103
SWIDTH 500 0
DWIDTH 8 0
BBX 8 16 0 -2
BITMAP
00
00
00
00
00
03
3f
66
66
66
3c
30
3e
63
63
3e
ENDCHAR
STARTCHAR SMALL LETTER h
ENCODING 104
SWIDTH 500 0
DWIDTH 8 0
BBX 8 16 0 -2
BITMAP
00
00
00
60
60
60
6e
73
63
63
63
63
63
63
00
00
ENDCHAR
STARTCHAR SMALL LETTER i
ENCODING 105
SWIDTH 500 0
DWIDTH 8 0
BBX 8 16 0 -2
BITMAP
00
00
00
18
18
00
38
18
18
18
18
18
18
7e
00
00
ENDCHAR
STARTCHAR SMALL LETTER j
ENCODING 106
SWIDTH 500 0
DWIDTH 8 0
BBX 8 16 0 -2
BITMAP
00
00
00
06
06
00
0e
06
06
06
06
06
06
06
6c
38
ENDCHAR
STARTCHAR SMALL LETTER k
ENCODING 107
SWIDTH 500 0
DWIDTH 8 0
BBX 8 16 0 -2
BITMAP
00
00
00
00
60
60
66
6c
78
70
78
6c
66
63
00
00
ENDCHAR
STARTCHAR SMALL LETTER l
ENCODING 108
SWIDTH 500 0
DWIDTH 8 0
BBX 8 16 0 -2
BITMAP
00
00
00
00
38
18
18
18
18
18
18
18
18
7e
00
00
ENDCHAR
STARTCHAR SMALL LETTER m
ENCODING 109
SWIDTH 500 0
DWIDTH 8 0
BBX 8 16 0 -2
BITMAP
00
00
00
00
00
00
76
7f
6b
6b
6b
63
63
63
00
00
ENDCHAR
STARTCHAR SMALL LETTER n
ENCODING 110
SWIDTH 500 0
DWIDTH 8 0
BBX 8 16 0 -2
BITMAP
00
00
00
00
00
00
6e
73
63
63
63
63
63
63
00
00
ENDCHAR
STARTCHAR SMALL LETTER o
ENCODING 111
SWIDTH 500 0
DWIDTH 8 0
BBX 8 16 0 -2
BITMAP
00
00
00
00
00
00
3e
63
63
63
63
63
63
3e
00
00
ENDCHAR
STARTCHAR SMALL LETTER p
ENCODING 112
SWIDTH 500 0
DWIDTH 8 0
BBX 8 16 0 -2
BITMAP
00
00
00
00
00
00
6e
73
63
63
63
63
73
6e
60
60
ENDCHAR
STARTCHAR SMALL LETTER q
ENCODING 113
SWIDTH 500 0
DWIDTH 8 0
BBX 8 16 0 -2
BITMAP
00
00
00
00
00
00
3b
67
63
63
63
63
67
3b
03
03
ENDCHAR
STARTCHAR SMALL LETTER r
ENCODING 114
SWIDTH 500 0
DWIDTH 8 0
BBX 8 16 0 -2
BITMAP
00
00
00
00
00
00
6e
73
63
60
60
60
60
60
00
00
ENDCHAR
STARTCHAR SMALL LETTER s
ENCODING 115
SWIDTH 500 0
DWIDTH 8 0
BBX 8 16 0 -2
BITMAP
00
00
00
00
00
00
3e
63
60
38
0e
03
63
3e
00
00
ENDCHAR
STARTCHAR SMALL LETTER t
ENCODING 116
SWIDTH 500 0
DWIDTH 8 0
BBX 8 16 0 -2
BITMAP
00
00
00
00
18
18
7e
18
18
18
18
18
18
0e
00
00
ENDCHAR
STARTCHAR SMALL LETTER u
ENCODING 117
SWIDTH 500 0
DWIDTH 8 0
BBX 8 16 0 -2
BITMAP
00
00
00
00
00
00
63
63
63
63
63
63
67
3b
00
00
ENDCHAR
STARTCHAR SMALL LETTER v
ENCODING 118
SWIDTH 500 0
DWIDTH 8 0
BBX 8 16 0 -2
BITMAP
00
00
00
00
00
00
63
63
63
36
36
36
1c
1c
00
00
ENDCHAR
STARTCHAR SMALL LETTER w
ENCODING 119
SWIDTH 500 0
DWIDTH 8 0
BBX 8 16 0 -2
BITMAP
00
00
00
00
00
00
63
63
63
6b
6b
6b
7f
36
00
00
ENDCHAR
STARTCHAR SMALL LETTER x
ENCODING 120
SWIDTH 500 0
DWIDTH 8 0
BBX 8 16 0 -2
BITMAP
00
00
00
00
00
00
63
63
36
1c
1c
36
63
63
00
00
ENDCHAR
STARTCHAR SMALL LETTER y
ENCODING 121
SWIDTH 500 0
DWIDTH 8 0
BBX 8 16 0 -2
BITMAP
00
00
00
00
00
00
63
63
63
63
63
37
1f
03
03
3e
ENDCHAR
STARTCHAR SMALL LETTER z
ENCODING 122
SWIDTH 500 0
DWIDTH 8 0
BBX 8 16 0 -2
BITMAP
00
00
00
00
00
00
7f
03
06
0c
18
30
60
7f
00
00
ENDCHAR
STARTCHAR LEFT CURLY BRACKET
ENCODING 123
SWIDTH 500 0
DWIDTH 8 0
BBX 8 16 0 -2
BITMAP
00
00
00
1c
30
30
18
18
30
30
18
18
30
30
1c
00
ENDCHAR
STARTCHAR VERTICAL LINE
ENCODING 124
SWIDTH 500 0
DWIDTH 8 0
BBX 8 16 0 -2
BITMAP
00
00
18
18
18
18
18
18
18
18
18
18
18
18
18
18
ENDCHAR
STARTCHAR RIGHT CURLY BRACKET
ENCODING 125
SWIDTH 500 0
DWIDTH 8 0
BBX 8 16 0 -2
BITMAP
00
00
00
38
0c
0c
18
18
0c
0c
18
18
0c
0c
38
00
ENDCHAR
STARTCHAR TILDE
ENCODING 126
SWIDTH 500 0
DWIDTH 8 0
BBX 8 16 0 -2
BITMAP
00
00
00
3b
6b
6e
00
00
00
00
00
00
00
00
00
00
ENDCHAR
STARTCHAR NO-BREAK SPACE                                                ,A (B
ENCODING 160
SWIDTH 500 0
DWIDTH 8 0
BBX 8 16 0 -2
BITMAP
00
00
00
00
00
00
00
00
00
00
00
00
00
00
00
00
ENDCHAR
STARTCHAR INVERTED EXCLAMATION MARK
ENCODING 161
SWIDTH 500 0
DWIDTH 8 0
BBX 8 16 0 -2
BITMAP
00
00
00
18
18
00
00
18
18
18
18
18
18
18
00
00
ENDCHAR
STARTCHAR CENT SIGN
ENCODING 162
SWIDTH 500 0
DWIDTH 8 0
BBX 8 16 0 -2
BITMAP
00
00
00
00
0c
0c
3f
6d
6c
6c
6d
3f
0c
0c
00
00
ENDCHAR
STARTCHAR POUND SIGN
ENCODING 163
SWIDTH 500 0
DWIDTH 8 0
BBX 8 16 0 -2
BITMAP
00
00
00
00
0e
1b
18
18
7e
18
18
18
3e
61
00
00
ENDCHAR
STARTCHAR CURRENCY SIGN
ENCODING 164
SWIDTH 500 0
DWIDTH 8 0
BBX 8 16 0 -2
BITMAP
00
00
00
00
00
41
63
3e
14
14
3e
63
41
00
00
00
ENDCHAR
STARTCHAR YEN SIGN
ENCODING 165
SWIDTH 500 0
DWIDTH 8 0
BBX 8 16 0 -2
BITMAP
00
00
00
00
43
26
1c
18
7e
18
7e
18
18
18
00
00
ENDCHAR
STARTCHAR BROKEN BAR
ENCODING 166
SWIDTH 500 0
DWIDTH 8 0
BBX 8 16 0 -2
BITMAP
00
00
00
00
18
18
18
18
00
00
18
18
18
18
00
00
ENDCHAR
STARTCHAR PARAGRAPH SIGN
ENCODING 167
SWIDTH 500 0
DWIDTH 8 0
BBX 8 16 0 -2
BITMAP
00
00
00
00
3c
66
60
3c
66
66
3c
06
66
3c
00
00
ENDCHAR
STARTCHAR DIAERESIS
ENCODING 168
SWIDTH 500 0
DWIDTH 8 0
BBX 8 16 0 -2
BITMAP
36
36
00
00
00
00
00
00
00
00
00
00
00
00
00
00
ENDCHAR
STARTCHAR COPYRIGHT SIGN
ENCODING 169
SWIDTH 500 0
DWIDTH 8 0
BBX 8 16 0 -2
BITMAP
00
00
00
00
3e
63
6b
77
63
63
77
6b
63
3e
00
00
ENDCHAR
STARTCHAR FEMININE ORDINAL INDICATOR
ENCODING 170
SWIDTH 500 0
DWIDTH 8 0
BBX 8 16 0 -2
BITMAP
00
00
3c
06
3e
66
3e
00
7e
00
00
00
00
00
00
00
ENDCHAR
STARTCHAR LEFT ANGLE QUOTATION MARK
ENCODING 171
SWIDTH 500 0
DWIDTH 8 0
BBX 8 16 0 -2
BITMAP
00
00
00
00
00
12
36
24
6c
48
6c
24
36
12
00
00
ENDCHAR
STARTCHAR NOT SIGN
ENCODING 172
SWIDTH 500 0
DWIDTH 8 0
BBX 8 16 0 -2
BITMAP
00
00
00
00
00
00
00
00
00
00
7e
06
06
06
00
00
ENDCHAR
STARTCHAR SOFT HYPHEN
ENCODING 173
SWIDTH 500 0
DWIDTH 8 0
BBX 8 16 0 -2
BITMAP
00
00
00
00
00
00
00
00
00
7e
00
00
00
00
00
00
ENDCHAR
STARTCHAR REGISTERED TRADE MARK SIGN
ENCODING 174
SWIDTH 500 0
DWIDTH 8 0
BBX 8 16 0 -2
BITMAP
00
00
00
00
3e
63
7b
6f
6f
7b
6f
67
63
3e
00
00
ENDCHAR
STARTCHAR MACRON
ENCODING 175
SWIDTH 500 0
DWIDTH 8 0
BBX 8 16 0 -2
BITMAP
00
00
7e
00
00
00
00
00
00
00
00
00
00
00
00
00
ENDCHAR
STARTCHAR DEGREE SIGN, RING ABOVE
ENCODING 176
SWIDTH 500 0
DWIDTH 8 0
BBX 8 16 0 -2
BITMAP
1c
36
1c
00
00
00
00
00
00
00
00
00
00
00
00
00
ENDCHAR
STARTCHAR PLUS-MINUS SIGN
ENCODING 177
SWIDTH 500 0
DWIDTH 8 0
BBX 8 16 0 -2
BITMAP
00
00
00
00
18
18
18
7e
18
18
18
00
7e
00
00
00
ENDCHAR
STARTCHAR SUPERSCRIPT TWO
ENCODING 178
SWIDTH 500 0
DWIDTH 8 0
BBX 8 16 0 -2
BITMAP
00
00
3c
66
06
3c
60
60
7e
00
00
00
00
00
00
00
ENDCHAR
STARTCHAR SUPERSCRIPT THREE
ENCODING 179
SWIDTH 500 0
DWIDTH 8 0
BBX 8 16 0 -2
BITMAP
00
00
3c
66
06
3c
06
66
3c
00
00
00
00
00
00
00
ENDCHAR
STARTCHAR ACUTE ACCENT
ENCODING 180
SWIDTH 500 0
DWIDTH 8 0
BBX 8 16 0 -2
BITMAP
0c
18
30
00
00
00
00
00
00
00
00
00
00
00
00
00
ENDCHAR
STARTCHAR MICRO SIGN
ENCODING 181
SWIDTH 500 0
DWIDTH 8 0
BBX 8 16 0 -2
BITMAP
00
00
00
00
00
00
00
00
63
63
63
77
7f
7e
60
60
ENDCHAR
STARTCHAR PILCROW SIGN
ENCODING 182
SWIDTH 500 0
DWIDTH 8 0
BBX 8 16 0 -2
BITMAP
00
00
00
3e
7a
7a
7a
7a
3a
0a
0a
0a
0a
0a
0e
00
ENDCHAR
STARTCHAR MIDDLE DOT
ENCODING 183
SWIDTH 500 0
DWIDTH 8 0
BBX 8 16 0 -2
BITMAP
00
00
00
00
00
00
00
00
1c
1c
00
00
00
00
00
00
ENDCHAR
STARTCHAR CEDILLA
ENCODING 184
SWIDTH 500 0
DWIDTH 8 0
BBX 8 16 0 -2
BITMAP
00
00
00
00
00
00
00
00
00
00
00
00
00
00
0c
38
ENDCHAR
STARTCHAR SUPERSCRIPT ONE
ENCODING 185
SWIDTH 500 0
DWIDTH 8 0
BBX 8 16 0 -2
BITMAP
00
00
0c
1c
3c
0c
0c
0c
0c
00
00
00
00
00
00
00
ENDCHAR
STARTCHAR MASCULINE ORDINAL INDICATOR
ENCODING 186
SWIDTH 500 0
DWIDTH 8 0
BBX 8 16 0 -2
BITMAP
00
00
3c
66
66
66
3c
00
7e
00
00
00
00
00
00
00
ENDCHAR
STARTCHAR RIGHT ANGLE QUOTATION MARK
ENCODING 187
SWIDTH 500 0
DWIDTH 8 0
BBX 8 16 0 -2
BITMAP
00
00
00
00
00
48
6c
24
36
12
36
24
6c
48
00
00
ENDCHAR
STARTCHAR VULGAR FRACTION ONE QUARTER
ENCODING 188
SWIDTH 500 0
DWIDTH 8 0
BBX 8 16 0 -2
BITMAP
00
00
00
00
31
73
36
34
3c
1b
17
3b
6f
43
00
00
ENDCHAR
STARTCHAR VULGAR FRACTION ONE HALF
ENCODING 189
SWIDTH 500 0
DWIDTH 8 0
BBX 8 16 0 -2
BITMAP
00
00
00
00
31
73
36
34
3c
1e
19
33
66
4f
00
00
ENDCHAR
STARTCHAR VULGAR FRACTION THREE QUARTERS
ENCODING 190
SWIDTH 500 0
DWIDTH 8 0
BBX 8 16 0 -2
BITMAP
00
00
00
00
71
1b
3e
14
7c
1b
17
3b
6f
43
00
00
ENDCHAR
STARTCHAR INVERTED QUESTION MARK
ENCODING 191
SWIDTH 500 0
DWIDTH 8 0
BBX 8 16 0 -2
BITMAP
00
00
00
18
18
00
00
18
18
30
66
66
66
3c
00
00
ENDCHAR
STARTCHAR CAPITAL LETTER A WITH GRAVE ACCENT
ENCODING 192
SWIDTH 500 0
DWIDTH 8 0
BBX 8 16 0 -2
BITMAP
38
0e
00
00
1c
36
63
63
63
7f
63
63
63
63
00
00
ENDCHAR
STARTCHAR CAPITAL LETTER A WITH ACUTE ACCENT
ENCODING 193
SWIDTH 500 0
DWIDTH 8 0
BBX 8 16 0 -2
BITMAP
0e
38
00
00
1c
36
63
63
63
7f
63
63
63
63
00
00
ENDCHAR
STARTCHAR CAPITAL LETTER A WITH CIRCUMFLEX ACCENT
ENCODING 194
SWIDTH 500 0
DWIDTH 8 0
BBX 8 16 0 -2
BITMAP
1c
36
00
00
1c
36
63
63
63
7f
63
63
63
63
00
00
ENDCHAR
STARTCHAR CAPITAL LETTER A WITH TILDE
ENCODING 195
SWIDTH 500 0
DWIDTH 8 0
BBX 8 16 0 -2
BITMAP
3b
6e
00
00
1c
36
63
63
63
7f
63
63
63
63
00
00
ENDCHAR
STARTCHAR CAPITAL LETTER A WITH DIAERESIS
ENCODING 196
SWIDTH 500 0
DWIDTH 8 0
BBX 8 16 0 -2
BITMAP
36
36
00
00
1c
36
63
63
63
7f
63
63
63
63
00
00
ENDCHAR
STARTCHAR CAPITAL LETTER A WITH RING ABOVE
ENCODING 197
SWIDTH 500 0
DWIDTH 8 0
BBX 8 16 0 -2
BITMAP
1c
36
1c
00
1c
36
63
63
63
7f
63
63
63
63
00
00
ENDCHAR
STARTCHAR CAPITAL DIPHTHONG A WITH E
ENCODING 198
SWIDTH 500 0
DWIDTH 8 0
BBX 8 16 0 -2
BITMAP
00
00
00
00
1f
3c
6c
6c
7f
6c
6c
6c
6c
6f
00
00
ENDCHAR
STARTCHAR CAPITAL LETTER C WITH CEDILLA
ENCODING 199
SWIDTH 500 0
DWIDTH 8 0
BBX 8 16 0 -2
BITMAP
00
00
00
00
3e
63
63
60
60
60
60
63
63
3e
0c
38
ENDCHAR
STARTCHAR CAPITAL LETTER E WITH GRAVE ACCENT
ENCODING 200
SWIDTH 500 0
DWIDTH 8 0
BBX 8 16 0 -2
BITMAP
38
0e
00
00
7f
60
60
60
7e
60
60
60
60
7f
00
00
ENDCHAR
STARTCHAR CAPITAL LETTER E WITH ACUTE ACCENT
ENCODING 201
SWIDTH 500 0
DWIDTH 8 0
BBX 8 16 0 -2
BITMAP
0e
38
00
00
7f
60
60
60
7e
60
60
60
60
7f
00
00
ENDCHAR
STARTCHAR CAPITAL LETTER E WITH CIRCUMFLEX ACCENT
ENCODING 202
SWIDTH 500 0
DWIDTH 8 0
BBX 8 16 0 -2
BITMAP
1c
36
00
00
7f
60
60
60
7e
60
60
60
60
7f
00
00
ENDCHAR
STARTCHAR CAPITAL LETTER E WITH DIAERESIS
ENCODING 203
SWIDTH 500 0
DWIDTH 8 0
BBX 8 16 0 -2
BITMAP
36
36
00
00
7f
60
60
60
7e
60
60
60
60
7f
00
00
ENDCHAR
STARTCHAR CAPITAL LETTER I WITH GRAVE ACCENT
ENCODING 204
SWIDTH 500 0
DWIDTH 8 0
BBX 8 16 0 -2
BITMAP
38
0e
00
00
7e
18
18
18
18
18
18
18
18
7e
00
00
ENDCHAR
STARTCHAR CAPITAL LETTER I WITH ACUTE ACCENT
ENCODING 205
SWIDTH 500 0
DWIDTH 8 0
BBX 8 16 0 -2
BITMAP
0e
38
00
00
7e
18
18
18
18
18
18
18
18
7e
00
00
ENDCHAR
STARTCHAR CAPITAL LETTER I WITH CIRCUMFLEX ACCENT
ENCODING 206
SWIDTH 500 0
DWIDTH 8 0
BBX 8 16 0 -2
BITMAP
1c
36
00
00
7e
18
18
18
18
18
18
18
18
7e
00
00
ENDCHAR
STARTCHAR CAPITAL LETTER I WITH DIAERESIS
ENCODING 207
SWIDTH 500 0
DWIDTH 8 0
BBX 8 16 0 -2
BITMAP
36
36
00
00
7e
18
18
18
18
18
18
18
18
7e
00
00
ENDCHAR
STARTCHAR CAPITAL ICELANDIC LETTER ETH
ENCODING 208
SWIDTH 500 0
DWIDTH 8 0
BBX 8 16 0 -2
BITMAP
00
00
00
00
7c
66
63
63
fb
63
63
63
66
7c
00
00
ENDCHAR
STARTCHAR CAPITAL LETTER N WITH TILDE
ENCODING 209
SWIDTH 500 0
DWIDTH 8 0
BBX 8 16 0 -2
BITMAP
3b
6e
00
00
63
63
73
73
6b
6b
67
67
63
63
00
00
ENDCHAR
STARTCHAR CAPITAL LETTER O WITH GRAVE ACCENT
ENCODING 210
SWIDTH 500 0
DWIDTH 8 0
BBX 8 16 0 -2
BITMAP
38
0e
00
00
3e
63
63
63
63
63
63
63
63
3e
00
00
ENDCHAR
STARTCHAR CAPITAL LETTER O WITH ACUTE ACCENT
ENCODING 211
SWIDTH 500 0
DWIDTH 8 0
BBX 8 16 0 -2
BITMAP
0e
38
00
00
3e
63
63
63
63
63
63
63
63
3e
00
00
ENDCHAR
STARTCHAR CAPITAL LETTER O WITH CIRCUMFLEX ACCENT
ENCODING 212
SWIDTH 500 0
DWIDTH 8 0
BBX 8 16 0 -2
BITMAP
1c
36
00
00
3e
63
63
63
63
63
63
63
63
3e
00
00
ENDCHAR
STARTCHAR CAPITAL LETTER O WITH TILDE
ENCODING 213
SWIDTH 500 0
DWIDTH 8 0
BBX 8 16 0 -2
BITMAP
3b
6e
00
00
3e
63
63
63
63
63
63
63
63
3e
00
00
ENDCHAR
STARTCHAR CAPITAL LETTER O WITH DIAERESIS
ENCODING 214
SWIDTH 500 0
DWIDTH 8 0
BBX 8 16 0 -2
BITMAP
36
36
00
00
3e
63
63
63
63
63
63
63
63
3e
00
00
ENDCHAR
STARTCHAR MULTIPLICATION SIGN
ENCODING 215
SWIDTH 500 0
DWIDTH 8 0
BBX 8 16 0 -2
BITMAP
00
00
00
00
00
00
63
63
36
1c
36
63
63
00
00
00
ENDCHAR
STARTCHAR CAPITAL LETTER O WITH OBLIQUE STROKE
ENCODING 216
SWIDTH 500 0
DWIDTH 8 0
BBX 8 16 0 -2
BITMAP
00
00
00
01
3f
63
67
67
6b
6b
73
73
63
7e
40
00
ENDCHAR
STARTCHAR CAPITAL LETTER U WITH GRAVE ACCENT
ENCODING 217
SWIDTH 500 0
DWIDTH 8 0
BBX 8 16 0 -2
BITMAP
38
0e
00
00
63
63
63
63
63
63
63
63
63
3e
00
00
ENDCHAR
STARTCHAR CAPITAL LETTER U WITH ACUTE ACCENT
ENCODING 218
SWIDTH 500 0
DWIDTH 8 0
BBX 8 16 0 -2
BITMAP
0e
38
00
00
63
63
63
63
63
63
63
63
63
3e
00
00
ENDCHAR
STARTCHAR CAPITAL LETTER U WITH CIRCUMFLEX ACCENT
ENCODING 219
SWIDTH 500 0
DWIDTH 8 0
BBX 8 16 0 -2
BITMAP
1c
36
00
00
63
63
63
63
63
63
63
63
63
3e
00
00
ENDCHAR
STARTCHAR CAPITAL LETTER U WITH DIAERESIS
ENCODING 220
SWIDTH 500 0
DWIDTH 8 0
BBX 8 16 0 -2
BITMAP
36
36
00
00
63
63
63
63
63
63
63
63
63
3e
00
00
ENDCHAR
STARTCHAR CAPITAL LETTER Y WITH ACUTE ACCENT
ENCODING 221
SWIDTH 500 0
DWIDTH 8 0
BBX 8 16 0 -2
BITMAP
0e
38
00
00
43
43
66
26
3c
18
18
18
18
18
00
00
ENDCHAR
STARTCHAR CAPITAL ICELANDIC LETTER THORN
ENCODING 222
SWIDTH 500 0
DWIDTH 8 0
BBX 8 16 0 -2
BITMAP
00
00
60
60
60
7c
66
66
66
66
7c
60
60
60
00
00
ENDCHAR
STARTCHAR SMALL GERMAN LETTER SHARP s
ENCODING 223
SWIDTH 500 0
DWIDTH 8 0
BBX 8 16 0 -2
BITMAP
00
00
00
00
3c
66
66
66
7e
63
63
63
73
6e
00
00
ENDCHAR
STARTCHAR SMALL LETTER a WITH GRAVE ACCENT
ENCODING 224
SWIDTH 500 0
DWIDTH 8 0
BBX 8 16 0 -2
BITMAP
00
00
38
0e
00
00
3e
63
03
3f
63
63
67
3b
00
00
ENDCHAR
STARTCHAR SMALL LETTER a WITH ACUTE ACCENT
ENCODING 225
SWIDTH 500 0
DWIDTH 8 0
BBX 8 16 0 -2
BITMAP
00
00
0e
38
00
00
3e
63
03
3f
63
63
67
3b
00
00
ENDCHAR
STARTCHAR SMALL LETTER a WITH CIRCUMFLEX ACCENT
ENCODING 226
SWIDTH 500 0
DWIDTH 8 0
BBX 8 16 0 -2
BITMAP
00
00
1c
36
00
00
3e
63
03
3f
63
63
67
3b
00
00
ENDCHAR
STARTCHAR SMALL LETTER a WITH TILDE
ENCODING 227
SWIDTH 500 0
DWIDTH 8 0
BBX 8 16 0 -2
BITMAP
00
00
3b
6e
00
00
3e
63
03
3f
63
63
67
3b
00
00
ENDCHAR
STARTCHAR SMALL LETTER a WITH DIAERESIS
ENCODING 228
SWIDTH 500 0
DWIDTH 8 0
BBX 8 16 0 -2
BITMAP
00
00
36
36
00
00
3e
63
03
3f
63
63
67
3b
00
00
ENDCHAR
STARTCHAR SMALL LETTER a WITH RING ABOVE
ENCODING 229
SWIDTH 500 0
DWIDTH 8 0
BBX 8 16 0 -2
BITMAP
00
1c
36
1c
00
00
3e
63
03
3f
63
63
67
3b
00
00
ENDCHAR
STARTCHAR SMALL DIPHTHONG a WITH e
ENCODING 230
SWIDTH 500 0
DWIDTH 8 0
BBX 8 16 0 -2
BITMAP
00
00
00
00
00
00
3e
6d
0d
3f
6c
6c
6d
3f
00
00
ENDCHAR
STARTCHAR SMALL LETTER c WITH CEDILLA
ENCODING 231
SWIDTH 500 0
DWIDTH 8 0
BBX 8 16 0 -2
BITMAP
00
00
00
00
00
00
3e
63
60
60
60
60
63
3e
0c
38
ENDCHAR
STARTCHAR SMALL LETTER e WITH GRAVE ACCENT
ENCODING 232
SWIDTH 500 0
DWIDTH 8 0
BBX 8 16 0 -2
BITMAP
00
00
38
0e
00
00
3e
63
63
7f
60
60
63
3e
00
00
ENDCHAR
STARTCHAR SMALL LETTER e WITH ACUTE ACCENT
ENCODING 233
SWIDTH 500 0
DWIDTH 8 0
BBX 8 16 0 -2
BITMAP
00
00
0e
38
00
00
3e
63
63
7f
60
60
63
3e
00
00
ENDCHAR
STARTCHAR SMALL LETTER e WITH CIRCUMFLEX ACCENT
ENCODING 234
SWIDTH 500 0
DWIDTH 8 0
BBX 8 16 0 -2
BITMAP
00
00
1c
36
00
00
3e
63
63
7f
60
60
63
3e
00
00
ENDCHAR
STARTCHAR SMALL LETTER e WITH DIAERESIS
ENCODING 235
SWIDTH 500 0
DWIDTH 8 0
BBX 8 16 0 -2
BITMAP
00
00
36
36
00
00
3e
63
63
7f
60
60
63
3e
00
00
ENDCHAR
STARTCHAR SMALL LETTER i WITH GRAVE ACCENT
ENCODING 236
SWIDTH 500 0
DWIDTH 8 0
BBX 8 16 0 -2
BITMAP
00
00
70
1c
00
00
38
18
18
18
18
18
18
7e
00
00
ENDCHAR
STARTCHAR SMALL LETTER i WITH ACUTE ACCENT
ENCODING 237
SWIDTH 500 0
DWIDTH 8 0
BBX 8 16 0 -2
BITMAP
00
00
1c
70
00
00
38
18
18
18
18
18
18
7e
00
00
ENDCHAR
STARTCHAR SMALL LETTER i WITH CIRCUMFLEX ACCENT
ENCODING 238
SWIDTH 500 0
DWIDTH 8 0
BBX 8 16 0 -2
BITMAP
00
00
38
6c
00
00
38
18
18
18
18
18
18
7e
00
00
ENDCHAR
STARTCHAR SMALL LETTER i WITH DIAERESIS
ENCODING 239
SWIDTH 500 0
DWIDTH 8 0
BBX 8 16 0 -2
BITMAP
00
00
6c
6c
00
00
38
18
18
18
18
18
18
7e
00
00
ENDCHAR
STARTCHAR SMALL ICELANDIC LETTER ETH
ENCODING 240
SWIDTH 500 0
DWIDTH 8 0
BBX 8 16 0 -2
BITMAP
00
00
3b
0e
1e
33
03
3b
67
63
63
63
63
3e
00
00
ENDCHAR
STARTCHAR SMALL LETTER n WITH TILDE
ENCODING 241
SWIDTH 500 0
DWIDTH 8 0
BBX 8 16 0 -2
BITMAP
00
00
3b
6e
00
00
6e
73
63
63
63
63
63
63
00
00
ENDCHAR
STARTCHAR SMALL LETTER o WITH GRAVE ACCENT
ENCODING 242
SWIDTH 500 0
DWIDTH 8 0
BBX 8 16 0 -2
BITMAP
00
00
38
0e
00
00
3e
63
63
63
63
63
63
3e
00
00
ENDCHAR
STARTCHAR SMALL LETTER o WITH ACUTE ACCENT
ENCODING 243
SWIDTH 500 0
DWIDTH 8 0
BBX 8 16 0 -2
BITMAP
00
00
0e
38
00
00
3e
63
63
63
63
63
63
3e
00
00
ENDCHAR
STARTCHAR SMALL LETTER o WITH CIRCUMFLEX ACCENT
ENCODING 244
SWIDTH 500 0
DWIDTH 8 0
BBX 8 16 0 -2
BITMAP
00
00
1c
36
00
00
3e
63
63
63
63
63
63
3e
00
00
ENDCHAR
STARTCHAR SMALL LETTER o WITH TILDE
ENCODING 245
SWIDTH 500 0
DWIDTH 8 0
BBX 8 16 0 -2
BITMAP
00
00
3b
6e
00
00
3e
63
63
63
63
63
63
3e
00
00
ENDCHAR
STARTCHAR SMALL LETTER o WITH DIAERESIS
ENCODING 246
SWIDTH 500 0
DWIDTH 8 0
BBX 8 16 0 -2
BITMAP
00
00
36
36
00
00
3e
63
63
63
63
63
63
3e
00
00
ENDCHAR
STARTCHAR DIVISION SIGN
ENCODING 247
SWIDTH 500 0
DWIDTH 8 0
BBX 8 16 0 -2
BITMAP
00
00
00
00
00
18
18
00
7e
7e
00
18
18
00
00
00
ENDCHAR
STARTCHAR SMALL LETTER o WITH OBLIQUE STROKE
ENCODING 248
SWIDTH 500 0
DWIDTH 8 0
BBX 8 16 0 -2
BITMAP
00
00
00
00
00
03
3e
67
67
6b
6b
73
73
3e
60
00
ENDCHAR
STARTCHAR SMALL LETTER u WITH GRAVE ACCENT
ENCODING 249
SWIDTH 500 0
DWIDTH 8 0
BBX 8 16 0 -2
BITMAP
00
00
38
0e
00
00
63
63
63
63
63
63
67
3d
00
00
ENDCHAR
STARTCHAR SMALL LETTER u WITH ACUTE ACCENT
ENCODING 250
SWIDTH 500 0
DWIDTH 8 0
BBX 8 16 0 -2
BITMAP
00
00
0e
38
00
00
63
63
63
63
63
63
67
3d
00
00
ENDCHAR
STARTCHAR SMALL LETTER u WITH CIRCUMFLEX ACCENT
ENCODING 251
SWIDTH 500 0
DWIDTH 8 0
BBX 8 16 0 -2
BITMAP
00
00
1c
36
00
00
63
63
63
63
63
63
67
3d
00
00
ENDCHAR
STARTCHAR SMALL LETTER u WITH DIAERESIS
ENCODING 252
SWIDTH 500 0
DWIDTH 8 0
BBX 8 16 0 -2
BITMAP
00
00
36
36
00
00
63
63
63
63
63
63
67
3d
00
00
ENDCHAR
STARTCHAR SMALL LETTER y WITH ACUTE ACCENT
ENCODING 253
SWIDTH 500 0
DWIDTH 8 0
BBX 8 16 0 -2
BITMAP
00
00
0e
38
00
00
63
63
63
63
63
37
1f
03
03
3e
ENDCHAR
STARTCHAR SMALL ICELANDIC LETTER THORN
ENCODING 254
SWIDTH 500 0
DWIDTH 8 0
BBX 8 16 0 -2
BITMAP
00
00
00
00
30
30
3e
33
33
33
36
3c
30
30
30
30
ENDCHAR
STARTCHAR SMALL LETTER y WITH DIAERESIS
ENCODING 255
SWIDTH 500 0
DWIDTH 8 0
BBX 8 16 0 -2
BITMAP
00
00
36
36
00
00
63
63
63
63
63
37
1f
03
03
3e
ENDCHAR
ENDFONT
